HIERARCHY
ROOT newVegas:Hips
{
	OFFSET 0.000000 96.479958 0.000000
	CHANNELS 6 Xposition Yposition Zposition Xrotation Yrotation Zrotation
	JOINT newVegas:Pelvis
	{
		OFFSET 0.000000 0.000000 0.000000
		CHANNELS 3 Xrotation Yrotation Zrotation
		JOINT newVegas:LeftUpLeg
		{
			OFFSET 18.735201 -5.666702 -4.541200
			CHANNELS 3 Xrotation Yrotation Zrotation
			JOINT newVegas:LeftLeg
			{
				OFFSET -0.021200 -31.938179 0.493100
				CHANNELS 3 Xrotation Yrotation Zrotation
				JOINT newVegas:LeftFoot
				{
					OFFSET 0.021200 -31.938179 -4.336299
					CHANNELS 3 Xrotation Yrotation Zrotation
					JOINT newVegas:LeftToeBase
					{
						OFFSET 0.943001 -26.722000 15.023500
						CHANNELS 3 Xrotation Yrotation Zrotation
						End Site
						{
							OFFSET 0.000000 30.670183 0.000000
						}
					}
				}
				JOINT newVegas:Left_PantLeg
				{
					OFFSET 0.663870 -9.044666 -1.108900
					CHANNELS 3 Xrotation Yrotation Zrotation
					End Site
					{
						OFFSET 1.415995 20.635357 0.000000
					}
				}
			}
		}
		JOINT newVegas:RightUpLeg
		{
			OFFSET -18.735201 -5.666702 -4.541200
			CHANNELS 3 Xrotation Yrotation Zrotation
			JOINT newVegas:RightLeg
			{
				OFFSET 0.018946 -31.938133 0.493100
				CHANNELS 3 Xrotation Yrotation Zrotation
				JOINT newVegas:RightFoot
				{
					OFFSET -0.018946 -31.938126 -4.336299
					CHANNELS 3 Xrotation Yrotation Zrotation
					JOINT newVegas:RightToeBase
					{
						OFFSET -0.943001 -26.722004 15.023500
						CHANNELS 3 Xrotation Yrotation Zrotation
						End Site
						{
							OFFSET 0.000000 30.670187 0.000000
						}
					}
				}
				JOINT newVegas:Right_PantLeg
				{
					OFFSET -0.661674 -9.044716 -1.108900
					CHANNELS 3 Xrotation Yrotation Zrotation
					End Site
					{
						OFFSET -1.415958 20.635269 0.000000
					}
				}
			}
		}
	}
	JOINT newVegas:Spine
	{
		OFFSET 0.000000 10.199997 -0.299500
		CHANNELS 3 Xrotation Yrotation Zrotation
		JOINT newVegas:Spine1
		{
			OFFSET 0.000000 11.900002 -1.516600
			CHANNELS 3 Xrotation Yrotation Zrotation
			JOINT newVegas:Spine2
			{
				OFFSET 0.000000 13.600006 -2.842500
				CHANNELS 3 Xrotation Yrotation Zrotation
				JOINT newVegas:Neck
				{
					OFFSET 0.000000 9.624100 -2.890100
					CHANNELS 3 Xrotation Yrotation Zrotation
					JOINT newVegas:Head
					{
						OFFSET 0.000000 14.068802 -1.351900
						CHANNELS 3 Xrotation Yrotation Zrotation
						JOINT newVegas:Hair_Back
						{
							OFFSET 0.000000 3.231903 -17.524799
							CHANNELS 3 Xrotation Yrotation Zrotation
							End Site
							{
								OFFSET 0.000000 19.849884 0.000000
							}
						}
						JOINT newVegas:Hair_Front
						{
							OFFSET 0.000000 31.260406 4.573800
							CHANNELS 3 Xrotation Yrotation Zrotation
							JOINT newVegas:Hair_Front1
							{
								OFFSET 0.000000 2.284103 11.993300
								CHANNELS 3 Xrotation Yrotation Zrotation
								JOINT newVegas:Hair_Front2
								{
									OFFSET 0.000000 2.284103 11.993300
									CHANNELS 3 Xrotation Yrotation Zrotation
									End Site
									{
										OFFSET 0.000000 12.208862 0.000000
									}
								}
							}
						}
						JOINT newVegas:Jowel
						{
							OFFSET 0.000000 -7.458206 6.864100
							CHANNELS 3 Xrotation Yrotation Zrotation
							End Site
							{
								OFFSET 0.000000 19.849884 0.000000
							}
						}
					}
				}
				JOINT newVegas:LeftShoulder
				{
					OFFSET 15.263000 10.923401 -0.547700
					CHANNELS 3 Xrotation Yrotation Zrotation
					JOINT newVegas:LeftArm
					{
						OFFSET 25.438599 -2.830597 -13.032500
						CHANNELS 3 Xrotation Yrotation Zrotation
						JOINT newVegas:LeftForeArm
						{
							OFFSET 29.960503 0.000000 0.000000
							CHANNELS 3 Xrotation Yrotation Zrotation
							JOINT newVegas:LeftHand
							{
								OFFSET 27.849251 0.000000 0.000000
								CHANNELS 3 Xrotation Yrotation Zrotation
								JOINT newVegas:LeftHandThumb1
								{
									OFFSET 4.487587 -3.305161 6.305391
									CHANNELS 3 Xrotation Yrotation Zrotation
									JOINT newVegas:LeftHandThumb2
									{
										OFFSET 5.480453 -3.164139 3.164143
										CHANNELS 3 Xrotation Yrotation Zrotation
										JOINT newVegas:LeftHandThumb3
										{
											OFFSET 5.159721 -2.978973 2.978967
											CHANNELS 3 Xrotation Yrotation Zrotation
											End Site
											{
												OFFSET 2.494507 5.926697 1.738678
											}
										}
									}
								}
								JOINT newVegas:LeftHandIndex1
								{
									OFFSET 18.578728 -0.527832 5.208049
									CHANNELS 3 Xrotation Yrotation Zrotation
									JOINT newVegas:LeftHandIndex2
									{
										OFFSET 3.192009 0.000000 0.000000
										CHANNELS 3 Xrotation Yrotation Zrotation
										JOINT newVegas:LeftHandIndex3
										{
											OFFSET 3.835129 0.000000 0.000000
											CHANNELS 3 Xrotation Yrotation Zrotation
											End Site
											{
												OFFSET -0.034599 3.816971 0.371180
											}
										}
									}
								}
								JOINT newVegas:LeftHandMiddle1
								{
									OFFSET 18.476105 0.000000 0.000000
									CHANNELS 3 Xrotation Yrotation Zrotation
									JOINT newVegas:LeftHandMiddle2
									{
										OFFSET 3.324875 0.000000 0.000000
										CHANNELS 3 Xrotation Yrotation Zrotation
										JOINT newVegas:LeftHandMiddle3
										{
											OFFSET 4.596550 0.000000 0.000000
											CHANNELS 3 Xrotation Yrotation Zrotation
											End Site
											{
												OFFSET 0.057701 4.578827 0.399218
											}
										}
									}
								}
								JOINT newVegas:LeftHandRing1
								{
									OFFSET 17.732719 0.121887 -4.201567
									CHANNELS 3 Xrotation Yrotation Zrotation
									JOINT newVegas:LeftHandRing2
									{
										OFFSET 2.733170 0.000000 0.000000
										CHANNELS 3 Xrotation Yrotation Zrotation
										JOINT newVegas:LeftHandRing3
										{
											OFFSET 3.178268 0.000000 0.000000
											CHANNELS 3 Xrotation Yrotation Zrotation
											End Site
											{
												OFFSET 0.119102 3.170624 0.185394
											}
										}
									}
								}
								JOINT newVegas:LeftHandPinky1
								{
									OFFSET 15.989624 -0.606689 -7.535461
									CHANNELS 3 Xrotation Yrotation Zrotation
									JOINT newVegas:LeftHandPinky2
									{
										OFFSET 2.538986 0.000000 0.000000
										CHANNELS 3 Xrotation Yrotation Zrotation
										JOINT newVegas:LeftHandPinky3
										{
											OFFSET 2.593102 0.000000 0.000000
											CHANNELS 3 Xrotation Yrotation Zrotation
											End Site
											{
												OFFSET -0.150902 2.584198 0.152708
											}
										}
									}
								}
							}
							JOINT newVegas:Left_Sleeve
							{
								OFFSET 0.267448 -0.649796 0.577675
								CHANNELS 3 Xrotation Yrotation Zrotation
								End Site
								{
									OFFSET 0.000000 15.991241 0.000000
								}
							}
							JOINT newVegas:Left_CapeC
							{
								OFFSET 15.715958 -8.608795 -6.935905
								CHANNELS 3 Xrotation Yrotation Zrotation
								JOINT newVegas:Left_CapeC1
								{
									OFFSET 0.000000 -8.688499 0.000000
									CHANNELS 3 Xrotation Yrotation Zrotation
									End Site
									{
										OFFSET 0.000000 8.688499 0.000000
									}
								}
							}
						}
						JOINT newVegas:Left_CapeB
						{
							OFFSET 26.118385 -8.608795 -7.079235
							CHANNELS 3 Xrotation Yrotation Zrotation
							JOINT newVegas:Left_CapeB1
							{
								OFFSET 0.000000 -8.688499 0.000000
								CHANNELS 3 Xrotation Yrotation Zrotation
								End Site
								{
									OFFSET 0.000000 8.688499 0.000000
								}
							}
						}
						JOINT newVegas:Left_CapeA
						{
							OFFSET 5.115639 -8.608795 -10.395809
							CHANNELS 3 Xrotation Yrotation Zrotation
							JOINT newVegas:Left_CapeA1
							{
								OFFSET 0.000000 -8.688499 0.000000
								CHANNELS 3 Xrotation Yrotation Zrotation
								End Site
								{
									OFFSET 0.000000 8.688499 0.000000
								}
							}
						}
					}
				}
				JOINT newVegas:RightShoulder
				{
					OFFSET -15.263000 10.923401 -0.547700
					CHANNELS 3 Xrotation Yrotation Zrotation
					JOINT newVegas:RightArm
					{
						OFFSET -25.438599 -2.830597 -13.032500
						CHANNELS 3 Xrotation Yrotation Zrotation
						JOINT newVegas:RightForeArm
						{
							OFFSET -29.960503 0.000000 0.000000
							CHANNELS 3 Xrotation Yrotation Zrotation
							JOINT newVegas:RightHand
							{
								OFFSET -27.849251 0.000000 0.000000
								CHANNELS 3 Xrotation Yrotation Zrotation
								JOINT newVegas:RightHandThumb1
								{
									OFFSET -4.487587 -3.305161 6.305391
									CHANNELS 3 Xrotation Yrotation Zrotation
									JOINT newVegas:RightHandThumb2
									{
										OFFSET -5.480453 -3.164139 3.164143
										CHANNELS 3 Xrotation Yrotation Zrotation
										JOINT newVegas:RightHandThumb3
										{
											OFFSET -5.159721 -2.978973 2.978967
											CHANNELS 3 Xrotation Yrotation Zrotation
											End Site
											{
												OFFSET -2.494507 5.926697 1.738678
											}
										}
									}
								}
								JOINT newVegas:RightHandIndex1
								{
									OFFSET -18.578728 -0.527832 5.208049
									CHANNELS 3 Xrotation Yrotation Zrotation
									JOINT newVegas:RightHandIndex2
									{
										OFFSET -3.192009 0.000000 0.000000
										CHANNELS 3 Xrotation Yrotation Zrotation
										JOINT newVegas:RightHandIndex3
										{
											OFFSET -3.835129 0.000000 0.000000
											CHANNELS 3 Xrotation Yrotation Zrotation
											End Site
											{
												OFFSET 0.034599 3.816971 0.371180
											}
										}
									}
								}
								JOINT newVegas:RightHandMiddle1
								{
									OFFSET -18.476105 0.000000 0.000000
									CHANNELS 3 Xrotation Yrotation Zrotation
									JOINT newVegas:RightHandMiddle2
									{
										OFFSET -3.324875 0.000000 0.000000
										CHANNELS 3 Xrotation Yrotation Zrotation
										JOINT newVegas:RightHandMiddle3
										{
											OFFSET -4.596550 0.000000 0.000000
											CHANNELS 3 Xrotation Yrotation Zrotation
											End Site
											{
												OFFSET -0.057701 4.578827 0.399218
											}
										}
									}
								}
								JOINT newVegas:RightHandRing1
								{
									OFFSET -17.732719 0.121887 -4.201567
									CHANNELS 3 Xrotation Yrotation Zrotation
									JOINT newVegas:RightHandRing2
									{
										OFFSET -2.733170 0.000000 0.000000
										CHANNELS 3 Xrotation Yrotation Zrotation
										JOINT newVegas:RightHandRing3
										{
											OFFSET -3.178268 0.000000 0.000000
											CHANNELS 3 Xrotation Yrotation Zrotation
											End Site
											{
												OFFSET -0.119102 3.170624 0.185394
											}
										}
									}
								}
								JOINT newVegas:RightHandPinky1
								{
									OFFSET -15.989624 -0.606689 -7.535461
									CHANNELS 3 Xrotation Yrotation Zrotation
									JOINT newVegas:RightHandPinky2
									{
										OFFSET -2.538986 0.000000 0.000000
										CHANNELS 3 Xrotation Yrotation Zrotation
										JOINT newVegas:RightHandPinky3
										{
											OFFSET -2.593102 0.000000 0.000000
											CHANNELS 3 Xrotation Yrotation Zrotation
											End Site
											{
												OFFSET 0.150902 2.584198 0.152708
											}
										}
									}
								}
							}
							JOINT newVegas:Right_CapeC
							{
								OFFSET -15.715958 -8.608795 -6.935905
								CHANNELS 3 Xrotation Yrotation Zrotation
								JOINT newVegas:Right_CapeC1
								{
									OFFSET 0.000000 -8.688499 0.000000
									CHANNELS 3 Xrotation Yrotation Zrotation
									End Site
									{
										OFFSET 0.000000 8.688499 0.000000
									}
								}
							}
							JOINT newVegas:Right_Sleeve
							{
								OFFSET -0.267448 -0.649994 0.577675
								CHANNELS 3 Xrotation Yrotation Zrotation
								End Site
								{
									OFFSET 0.000000 15.991302 0.000000
								}
							}
						}
						JOINT newVegas:Right_CapeA
						{
							OFFSET -5.115540 -8.608795 -10.395824
							CHANNELS 3 Xrotation Yrotation Zrotation
							JOINT newVegas:Right_CapeA1
							{
								OFFSET 0.000000 -8.688499 0.000000
								CHANNELS 3 Xrotation Yrotation Zrotation
								End Site
								{
									OFFSET 0.000000 8.688499 0.000000
								}
							}
						}
						JOINT newVegas:Right_CapeB
						{
							OFFSET -26.118187 -8.608795 -7.079266
							CHANNELS 3 Xrotation Yrotation Zrotation
							JOINT newVegas:Right_CapeB1
							{
								OFFSET 0.000000 -8.688499 0.000000
								CHANNELS 3 Xrotation Yrotation Zrotation
								End Site
								{
									OFFSET 0.000000 8.688499 0.000000
								}
							}
						}
					}
				}
				JOINT newVegas:Left_Collar
				{
					OFFSET 18.625099 8.655502 8.828100
					CHANNELS 3 Xrotation Yrotation Zrotation
					JOINT newVegas:Left_Collar1
					{
						OFFSET 14.783401 10.540405 -1.259500
						CHANNELS 3 Xrotation Yrotation Zrotation
						End Site
						{
							OFFSET 0.000000 18.199875 0.000000
						}
					}
				}
				JOINT newVegas:Collar_Back
				{
					OFFSET 0.000000 15.630707 -20.132601
					CHANNELS 3 Xrotation Yrotation Zrotation
					End Site
					{
						OFFSET 0.000000 22.523010 0.000000
					}
				}
				JOINT newVegas:Left_Peck
				{
					OFFSET 17.239599 -5.132599 25.482599
					CHANNELS 3 Xrotation Yrotation Zrotation
					End Site
					{
						OFFSET 0.000000 22.523010 0.000000
					}
				}
				JOINT newVegas:Right_Peck
				{
					OFFSET -17.239599 -5.132202 25.482599
					CHANNELS 3 Xrotation Yrotation Zrotation
					End Site
					{
						OFFSET 0.000000 22.523010 0.000000
					}
				}
				JOINT newVegas:Right_Collar
				{
					OFFSET -18.625099 8.655792 8.828100
					CHANNELS 3 Xrotation Yrotation Zrotation
					JOINT newVegas:Right_Collar1
					{
						OFFSET -14.783401 10.539993 -1.259500
						CHANNELS 3 Xrotation Yrotation Zrotation
						End Site
						{
							OFFSET 0.000000 18.199631 0.000000
						}
					}
				}
			}
		}
		JOINT newVegas:Belly
		{
			OFFSET 0.000000 -6.540398 9.014299
			CHANNELS 3 Xrotation Yrotation Zrotation
			End Site
			{
				OFFSET 0.000000 11.566666 0.000000
			}
		}
	}
	JOINT newVegas:ElvisFacialAnim_Joint
	{
		OFFSET 1.000000 -95.330101 -8.825800
		CHANNELS 3 Xrotation Yrotation Zrotation
		End Site
		{
			OFFSET 0.000000 35.315800 0.000000
		}
	}
}
MOTION
Frames: 4
Frame Time: 0.033333
-1.028590 64.950493 2.068680 -23.127447 -6.398228 -1.799265 0.000002 0.000000 -0.000000 -103.039250 -0.971655 32.043986 129.657823 -21.807305 -0.186177 -21.443546 -1.441823 8.529538 0.000000 0.000000 0.000000 -0.000000 0.000000 0.000002 -123.064955 7.403852 -35.151989 131.578854 23.211396 -1.435564 -9.786000 -1.808685 6.483619 0.000001 -0.000001 0.000000 0.000001 -0.000001 0.000002 7.682409 -0.983058 -0.704432 15.374098 -1.676407 -0.551058 15.374085 -1.676407 -0.551058 -2.358250 0.515290 0.060649 -2.358248 0.515292 0.060649 0.000001 0.000000 -0.000000 -2.358180 0.515289 0.060649 -2.358263 0.515290 0.060649 0.000000 -0.000001 0.000000 0.000001 0.000000 -0.000000 -0.118036 -1.799428 36.289430 -52.828856 -25.615103 -11.951788 -14.771392 -27.765161 2.643249 12.708352 -2.118995 42.940170 -11.359832 -10.015668 28.397671 19.621100 23.755266 -10.341708 -0.000000 -0.000002 -0.000005 -7.847193 -3.444994 -67.091227 -4.891299 2.721792 -36.316567 -0.000002 -0.000001 -0.000002 -10.129944 -3.870860 -67.774266 -1.769199 1.712162 -28.157813 -0.000001 0.000002 0.000000 -15.177616 7.295111 -70.201634 7.766215 -0.421234 -31.520053 0.000000 -0.000001 0.000002 -16.482310 5.436066 -74.872807 8.342206 -0.186092 -18.883178 -0.000000 -0.000002 -0.000000 0.000001 0.000000 0.000000 0.000001 0.000000 0.000000 0.000000 0.000000 0.000000 -0.000001 -0.000002 0.000001 -0.000001 -0.000002 -0.000003 -0.000001 -0.000002 0.000001 -0.000001 -0.000002 0.000001 9.813611 24.196314 -37.946055 -46.241907 23.159747 -4.679437 -22.080323 26.222855 3.033128 0.657393 10.544666 -45.160644 15.333227 1.500654 -10.491387 -10.396770 -3.067645 -10.223907 0.000000 0.000000 0.000001 0.919902 3.496403 64.452179 1.727764 9.561669 38.866280 0.000000 0.000001 -0.000000 -6.652428 -3.924333 64.485694 9.406009 5.988788 38.253632 -0.000000 0.000001 0.000001 -5.546338 1.390190 64.784788 0.234014 -1.791470 39.151799 -0.000001 0.000001 0.000000 -17.806360 -16.572317 61.043299 25.329476 3.861612 27.748060 0.000002 -0.000002 -0.000001 0.000000 0.000001 -0.000006 -0.000000 0.000001 -0.000004 -0.000000 0.000001 -0.000006 0.000000 0.000003 -0.000001 -0.000000 0.000003 -0.000001 0.000000 0.000003 -0.000001 -0.000000 0.000003 0.000000 0.000000 -0.000001 -0.000000 0.000000 -0.000001 -0.000000 0.000000 -0.000001 -0.000000 0.000000 -0.000001 -0.000000 0.000000 -0.000001 -0.000000 0.000000 -0.000001 -0.000000 0.000000 -0.000001 -0.000000 -0.000000 0.000000 0.000000 0.000002 0.000000 -0.000000 
-0.795216 66.109161 -0.820023 -21.184387 -5.378569 -2.364075 0.000002 0.000000 -0.000000 -113.940492 -2.829527 38.797110 127.683420 -19.866468 -2.043797 -7.816001 -6.090662 12.154367 0.000000 -0.000001 0.000000 0.000001 -0.000000 0.000002 -107.926490 -3.103443 -35.974231 120.670072 24.970816 1.910812 -19.442082 2.534824 3.069768 0.000001 0.000001 -0.000002 0.000001 0.000001 -0.000001 8.214142 -0.588778 -1.288813 16.420220 -1.053054 -2.295916 16.420217 -1.053053 -2.295915 -2.587200 0.531438 -0.035032 -2.587207 0.531440 -0.035035 0.000001 0.000001 0.000000 -2.587225 0.531448 -0.035030 -2.587153 0.531415 -0.035025 0.000000 -0.000000 -0.000000 0.000001 0.000001 0.000000 1.106171 -4.757050 37.746101 -57.892656 -25.234870 -9.436197 -13.833489 -37.213623 7.042012 15.408625 5.413093 28.137862 -11.390595 -10.052911 28.669207 19.220940 23.027360 -9.839667 0.000002 -0.000001 -0.000004 -7.984390 -3.951013 -64.357683 -4.783755 2.669813 -35.202457 0.000001 -0.000001 -0.000002 -10.006387 -4.051081 -65.109782 -1.743818 1.709054 -27.032804 0.000000 -0.000000 -0.000000 -14.706628 6.719357 -66.787427 7.563337 -0.237247 -30.352493 -0.000001 -0.000001 0.000001 -14.888352 4.704811 -70.291492 8.064725 -0.153131 -18.120668 -0.000001 -0.000003 0.000001 0.000001 -0.000001 0.000003 0.000001 -0.000001 0.000003 0.000001 -0.000000 0.000003 -0.000001 -0.000002 -0.000002 -0.000002 -0.000003 -0.000003 -0.000001 -0.000002 -0.000002 -0.000001 -0.000002 -0.000001 9.443801 22.821426 -38.293882 -37.136801 6.606938 -7.762622 -30.822123 35.695057 7.965250 -4.546605 12.652700 -40.480769 12.743658 0.127235 -14.141123 -9.778974 -2.904047 -10.008086 0.000002 0.000000 0.000003 0.712660 3.348573 58.221134 1.764537 9.118308 38.077786 -0.000000 -0.000000 -0.000002 -6.767705 -3.469401 59.849259 9.118194 5.543614 37.134191 -0.000002 0.000000 0.000000 -4.877798 1.202108 62.101910 0.141734 -1.687954 37.918161 -0.000001 0.000002 -0.000001 -16.740824 -15.764847 58.247198 24.307819 3.610415 27.087436 0.000000 -0.000002 -0.000001 -0.000000 -0.000000 0.000002 -0.000000 -0.000000 0.000004 -0.000000 -0.000000 0.000002 -0.000001 0.000003 -0.000000 -0.000001 0.000003 -0.000001 -0.000001 0.000003 -0.000000 -0.000001 0.000003 -0.000000 -0.000001 -0.000000 -0.000000 -0.000001 -0.000000 -0.000000 -0.000001 -0.000000 -0.000000 -0.000001 -0.000000 -0.000000 -0.000001 -0.000000 -0.000000 -0.000001 -0.000000 -0.000000 -0.000001 -0.000000 -0.000000 0.000001 0.000000 -0.000000 0.000002 0.000000 -0.000000 
-0.691674 69.806557 -4.424295 -18.819343 -3.914846 -3.238665 0.000002 0.000000 0.000000 -130.740380 -7.574149 39.690981 127.134423 -13.073227 -1.752659 9.217666 -7.813830 11.673353 -0.000000 0.000000 0.000001 0.000003 0.000001 -0.000002 -82.824035 -19.125122 -22.480547 99.288848 28.870540 5.785705 -32.236557 4.255476 -10.747864 0.000000 0.000001 -0.000002 0.000000 0.000001 0.000001 8.492870 -0.566173 -1.273479 16.962085 -1.463833 -2.994837 16.962092 -1.463835 -2.994835 -2.487351 0.616429 -0.318933 -2.487362 0.616433 -0.318930 0.000001 -0.000000 0.000001 -2.487426 0.616421 -0.318930 -2.487204 0.616435 -0.318937 -0.000000 0.000000 0.000001 0.000001 -0.000000 0.000001 2.264480 -8.280982 33.864566 -66.206478 -29.984691 -11.267554 -11.094304 -41.078093 13.230010 23.396079 9.745712 10.608058 -11.465928 -10.142892 29.336704 18.258148 21.236518 -8.633154 0.000001 -0.000001 -0.000001 -8.131545 -5.274013 -57.629045 -4.510296 2.552682 -32.464278 0.000000 -0.000000 -0.000002 -9.670725 -4.497086 -58.558798 -1.669508 1.706927 -24.267565 0.000001 -0.000001 0.000000 -13.455863 5.551516 -58.554939 7.053612 0.180665 -27.478175 -0.000001 -0.000001 0.000000 -11.000042 3.798106 -59.324954 7.386688 -0.099641 -16.245426 -0.000000 -0.000002 -0.000000 0.000000 -0.000001 0.000001 0.000000 -0.000001 0.000001 0.000000 -0.000001 0.000001 -0.000000 0.000000 0.000002 0.000000 0.000000 -0.000000 -0.000000 0.000000 0.000002 -0.000001 -0.000001 0.000003 8.352164 21.791852 -34.943463 -18.901276 -2.103671 -15.826938 -38.655712 37.101803 16.343099 -12.202355 20.392556 -40.947124 6.404609 -1.959720 -22.565835 -8.266162 -2.477160 -9.485407 0.000000 0.000000 0.000001 0.406950 3.378125 43.652671 1.808048 8.034649 36.138063 0.000001 0.000002 0.000001 -6.764838 -2.366241 48.932244 8.363196 4.509881 34.371431 -0.000003 0.000002 0.000000 -3.331054 0.572165 55.507957 -0.055802 -1.422711 34.884757 -0.000002 0.000001 0.000001 -13.980029 -14.250387 51.345558 21.785776 3.093077 25.458702 -0.000002 -0.000005 0.000001 0.000001 -0.000001 0.000000 0.000001 -0.000000 0.000000 0.000001 -0.000001 0.000001 -0.000001 -0.000002 0.000002 -0.000001 -0.000001 0.000000 -0.000001 -0.000002 0.000002 -0.000000 -0.000001 0.000002 0.000000 0.000000 -0.000001 0.000000 0.000000 -0.000001 0.000000 0.000000 -0.000001 0.000000 0.000000 -0.000001 0.000000 0.000000 -0.000001 0.000000 0.000000 -0.000001 0.000000 0.000000 -0.000001 -0.000001 -0.000000 -0.000000 0.000002 0.000000 0.000000 
-0.225884 76.030945 -3.772303 -16.440578 -3.564431 -3.957990 -0.000001 -0.000000 -0.000000 -148.234530 -16.280108 39.815116 132.202314 -6.299380 -0.974124 22.879110 -9.266326 12.282136 -0.000000 0.000000 0.000000 -0.000002 -0.000001 -0.000000 -54.186838 -21.407917 -4.483761 69.479696 30.951047 11.121154 -34.200888 6.742743 -21.383543 -0.000003 0.000000 0.000001 -0.000001 0.000001 0.000001 8.393994 -0.998945 -1.812911 16.745056 -2.312721 -3.863348 16.745063 -2.312722 -3.863343 -2.230114 0.710650 -0.509133 -2.230116 0.710649 -0.509130 0.000002 -0.000001 -0.000001 -2.230113 0.710643 -0.509130 -2.230112 0.710659 -0.509137 0.000001 -0.000000 -0.000000 0.000002 -0.000001 -0.000001 2.376361 -9.457990 30.806612 -61.340256 -26.738545 -9.236759 -6.679476 -61.152958 21.979286 28.353078 22.981619 -9.074006 -11.560388 -10.253292 30.179553 17.081077 18.973415 -7.162967 -0.000000 -0.000000 -0.000003 -7.904876 -7.044442 -49.100741 -4.144228 2.442576 -29.008182 0.000000 -0.000001 0.000002 -9.175659 -5.059603 -50.284259 -1.560948 1.718411 -20.776730 -0.000001 -0.000000 -0.000001 -11.785508 4.575202 -48.524338 6.392189 0.638035 -23.841095 -0.000001 0.000001 -0.000000 -6.537727 4.256619 -46.278821 6.541238 -0.087374 -13.876901 -0.000000 0.000002 0.000000 0.000002 0.000000 0.000002 0.000002 0.000000 0.000002 0.000001 -0.000000 0.000002 -0.000000 -0.000003 -0.000004 0.000000 -0.000003 -0.000003 -0.000000 -0.000003 -0.000004 0.000001 -0.000003 -0.000004 5.459194 17.366692 -29.102634 -10.014765 -5.960442 -17.449977 -46.829754 47.953925 29.085841 -11.411195 24.075063 -44.392497 -0.976560 -2.381787 -31.597838 -6.368653 -1.888943 -8.843459 0.000001 -0.000005 -0.000003 0.603893 3.947907 26.953649 1.768955 6.683306 33.683488 -0.000002 0.000001 -0.000000 -6.255474 -1.128816 36.203585 7.321416 3.333192 30.860318 -0.000001 -0.000000 0.000001 -1.614802 -0.529727 47.189828 -0.244549 -1.070563 31.053079 0.000001 0.000001 0.000002 -10.358087 -13.320865 42.589047 18.587255 2.643712 23.403548 -0.000002 -0.000004 -0.000000 0.000003 0.000000 -0.000000 0.000001 -0.000000 0.000000 0.000003 -0.000000 -0.000000 -0.000001 0.000002 0.000002 -0.000001 0.000001 0.000003 -0.000001 0.000002 0.000002 -0.000000 0.000001 0.000005 0.000001 -0.000000 0.000000 0.000001 -0.000000 0.000000 0.000001 -0.000000 0.000000 0.000001 -0.000000 0.000000 0.000001 -0.000000 0.000000 0.000001 -0.000000 0.000000 0.000001 -0.000000 0.000000 0.000001 0.000000 0.000001 -0.000001 -0.000000 -0.000000 
